<svg width="140" height="140" viewBox="0 0 140 140" fill="none" xmlns="http://www.w3.org/2000/svg">
<rect width="140" height="140" rx="8" fill="white"/>
<g filter="url(#filter0_d_687_1219)">
<path d="M41.5802 99.96C33.6335 99.96 27.4202 97.7467 22.9402 93.32C18.4602 88.8933 16.2202 82.5733 16.2202 74.36V43H29.1802V73.88C29.1802 79.2133 30.2735 83.0533 32.4602 85.4C34.6468 87.7467 37.7135 88.92 41.6602 88.92C45.6068 88.92 48.6735 87.7467 50.8602 85.4C53.0468 83.0533 54.1402 79.2133 54.1402 73.88V43H66.9402V74.36C66.9402 82.5733 64.7002 88.8933 60.2202 93.32C55.7402 97.7467 49.5268 99.96 41.5802 99.96Z" fill="#1E293B"/>
<path d="M104.303 99.912C100.098 99.912 96.2217 99.2533 92.675 97.936C89.179 96.568 86.1137 94.6427 83.479 92.16C80.895 89.6773 78.8684 86.764 77.399 83.42C75.9804 80.076 75.271 76.4027 75.271 72.4C75.271 68.3973 75.9804 64.724 77.399 61.38C78.8684 58.036 80.9204 55.1227 83.555 52.64C86.1897 50.1573 89.2804 48.2573 92.827 46.94C96.3737 45.572 100.275 44.888 104.531 44.888C109.243 44.888 113.474 45.6733 117.223 47.244C121.023 48.8147 124.215 51.0947 126.799 54.084L118.895 61.38C116.97 59.3533 114.867 57.8587 112.587 56.896C110.307 55.8827 107.824 55.376 105.139 55.376C102.555 55.376 100.199 55.7813 98.071 56.592C95.943 57.4027 94.0937 58.568 92.523 60.088C91.003 61.608 89.8124 63.4067 88.951 65.484C88.1404 67.5613 87.735 69.8667 87.735 72.4C87.735 74.8827 88.1404 77.1627 88.951 79.24C89.8124 81.3173 91.003 83.1413 92.523 84.712C94.0937 86.232 95.9177 87.3973 97.995 88.208C100.123 89.0187 102.454 89.424 104.987 89.424C107.419 89.424 109.775 89.044 112.055 88.284C114.386 87.4733 116.64 86.1307 118.819 84.256L125.811 93.148C122.923 95.3267 119.554 96.9987 115.703 98.164C111.903 99.3293 108.103 99.912 104.303 99.912ZM114.563 91.552V71.564H125.811V93.148L114.563 91.552Z" fill="#64748B"/>
</g>
<defs>
<filter id="filter0_d_687_1219" x="8.22015" y="35" width="130.579" height="76.96" filterUnits="userSpaceOnUse" color-interpolation-filters="sRGB">
<feFlood flood-opacity="0" result="BackgroundImageFix"/>
<feColorMatrix in="SourceAlpha" type="matrix" values="0 0 0 0 0 0 0 0 0 0 0 0 0 0 0 0 0 0 127 0" result="hardAlpha"/>
<feOffset dx="2" dy="2"/>
<feGaussianBlur stdDeviation="5"/>
<feComposite in2="hardAlpha" operator="out"/>
<feColorMatrix type="matrix" values="0 0 0 0 0 0 0 0 0 0 0 0 0 0 0 0 0 0 0.1 0"/>
<feBlend mode="normal" in2="BackgroundImageFix" result="effect1_dropShadow_687_1219"/>
<feBlend mode="normal" in="SourceGraphic" in2="effect1_dropShadow_687_1219" result="shape"/>
</filter>
</defs>
</svg>
